<?xml version="1.0" standalone="no"?>
<!DOCTYPE svg PUBLIC "-//W3C//DTD SVG 20010904//EN"
 "http://www.w3.org/TR/2001/REC-SVG-20010904/DTD/svg10.dtd">
<svg version="1.0" xmlns="http://www.w3.org/2000/svg"
 width="330.000000pt" height="330.000000pt" viewBox="0 0 330.000000 330.000000"
 preserveAspectRatio="xMidYMid meet">
<metadata>
Created by potrace 1.14, written by Peter Selinger 2001-2017
</metadata>
<g transform="translate(0.000000,330.000000) scale(0.100000,-0.100000)"
fill="#000000" stroke="none">
<path d="M0 1650 l0 -1650 1650 0 1650 0 0 1650 0 1650 -1650 0 -1650 0 0
-1650z m2841 1348 c52 -15 113 -68 138 -121 21 -43 21 -47 21 -1223 0 -1122
-1 -1181 -19 -1219 -23 -51 -65 -93 -116 -116 -38 -18 -97 -19 -1235 -19
-1140 0 -1197 1 -1236 19 -49 23 -107 88 -122 140 -9 28 -12 347 -12 1202 0
1150 1 1165 21 1209 27 60 54 88 114 116 l50 24 1179 0 c866 0 1189 -3 1217
-12z"/>
<path d="M1170 2541 c0 -21 -6 -32 -20 -36 -10 -3 -31 -20 -45 -36 -50 -60
-24 -144 54 -176 47 -19 71 -42 71 -64 0 -27 -44 -34 -91 -16 -37 15 -40 15
-54 -6 -26 -37 -18 -54 29 -72 30 -12 46 -24 48 -38 7 -45 68 -49 68 -3 0 17
10 30 35 45 44 26 68 78 59 127 -7 37 -46 76 -98 98 -44 18 -62 42 -46 61 15
18 40 19 75 3 22 -10 29 -9 46 8 25 25 17 48 -23 65 -18 7 -34 24 -40 41 -8
22 -16 28 -39 28 -25 0 -29 -4 -29 -29z"/>
<path d="M1437 2421 c-45 -10 -60 -22 -55 -47 3 -16 12 -19 53 -17 301 11 398
-1 530 -66 95 -47 187 -133 221 -205 31 -67 38 -155 20 -238 -22 -103 -7 -145
98 -267 25 -30 46 -60 46 -67 0 -6 -15 -17 -32 -24 -44 -18 -78 -49 -78 -72 0
-11 7 -32 15 -48 15 -29 15 -30 -5 -30 -56 0 -81 -54 -40 -83 18 -13 19 -15 5
-27 -34 -28 -37 -48 -15 -96 46 -105 25 -119 -167 -109 -145 7 -163 3 -188
-46 -13 -23 -15 -46 -9 -100 l7 -69 -358 0 c-282 0 -356 3 -352 13 3 6 21 48
41 93 45 103 66 183 66 256 0 71 -19 111 -89 191 -27 31 -62 72 -76 91 -32 42
-50 50 -70 30 -20 -20 -7 -44 85 -154 39 -47 76 -101 82 -122 14 -48 -8 -149
-62 -274 -48 -112 -50 -145 -14 -173 26 -20 37 -21 405 -21 l378 0 13 23 c8
14 12 53 11 105 -1 68 1 84 15 91 10 5 62 4 122 -2 131 -13 174 -5 217 38 39
39 43 78 14 141 l-19 42 24 11 c27 12 47 54 39 81 -3 9 1 23 10 30 19 16 19
54 -1 85 -15 23 -15 24 19 38 19 8 42 25 51 38 35 50 15 105 -75 208 -55 62
-65 102 -46 185 19 83 8 185 -28 263 -31 70 -140 178 -220 222 -113 61 -210
82 -390 86 -88 2 -177 0 -198 -4z"/>
<path d="M1401 2221 c-6 -11 -11 -28 -11 -38 0 -11 -15 -26 -36 -38 -55 -29
-85 -105 -64 -161 17 -44 49 -73 117 -106 38 -17 65 -37 69 -50 14 -46 -55
-65 -128 -34 -36 15 -37 15 -57 -10 -32 -41 -27 -62 22 -84 23 -11 50 -20 60
-20 12 0 17 -8 17 -28 0 -33 16 -52 45 -52 29 0 45 19 45 52 0 20 7 31 23 38
58 24 87 70 87 136 0 70 -27 107 -115 153 -58 30 -70 40 -70 61 0 31 37 42 84
23 47 -18 58 -17 77 12 23 35 10 61 -41 82 -37 15 -45 23 -47 48 -3 26 -8 30
-35 33 -23 2 -34 -2 -42 -17z"/>
<path d="M973 2143 c-7 -2 -13 -18 -13 -34 0 -22 -6 -32 -23 -38 -41 -16 -77
-68 -77 -112 0 -65 23 -95 99 -133 77 -39 90 -57 61 -86 -24 -24 -39 -25 -87
-5 -49 20 -56 19 -75 -13 -22 -37 -9 -57 52 -77 44 -15 50 -20 50 -45 0 -54
67 -51 72 3 2 23 10 35 30 45 78 37 105 139 52 202 -15 17 -53 44 -85 60 -64
33 -72 41 -63 64 9 24 49 30 84 12 37 -18 53 -14 70 19 16 30 3 49 -46 67 -24
8 -34 18 -34 33 0 36 -30 53 -67 38z"/>
</g>
</svg>
